<!DOCTYPE svg PUBLIC "-//W3C//DTD SVG 1.1//EN" "http://www.w3.org/Graphics/SVG/1.1/DTD/svg11.dtd">
<!-- Uploaded to: SVG Repo, www.svgrepo.com, Transformed by: SVG Repo Mixer Tools -->
<svg height="800px" width="800px" version="1.1" id="Layer_1" xmlns="http://www.w3.org/2000/svg" xmlns:xlink="http://www.w3.org/1999/xlink" viewBox="-51.2 -51.2 614.40 614.40" xml:space="preserve" fill="#000000">
<g id="SVGRepo_bgCarrier" stroke-width="0">
<path transform="translate(-51.2,-51.2)" d="M307.2,611.5921813845634C390.46947474036966,604.3068610231103,422.2956097893716,505.063773383898,465.8559397477251,433.72388993694085C499.65179983498274,378.3755323391059,527.6869435382179,322.60090862839706,523.1602430415193,257.90848379806243C517.3325062177526,174.62256137455364,517.2639353957161,61.81367685717166,437.9978397675384,35.59548709726656C358.94846841665674,9.448981431080195,312.23536220549164,125.80652517819573,238.04792944913328,163.60424588384546C168.19241028045485,199.19490194492303,60.14717180521541,171.6812677448848,29.3699730820437,243.78710936633672C-3.0067786400849883,319.64043678873236,59.731346972856365,399.09769007464774,109.44183112903049,464.90687710871066C161.488079311905,533.808263591438,221.1792360246643,619.1182144867448,307.2,611.5921813845634" fill="#3e5d8e" strokewidth="0"/>
</g>
<g id="SVGRepo_iconCarrier"> <circle style="fill:#2D5D70;" cx="256" cy="256" r="256"/> <path style="fill:#2D5D70;" d="M394.799,256l-98.573-1.724l-185.465,21.549l223.858,223.856 c71.623-23.092,129.455-76.869,158.008-145.854L394.799,256z"/> <polygon style="fill:#F5CEB8;" points="300.327,161.528 272.289,189.566 318.898,236.175 110.761,236.175 110.761,275.825 318.898,275.825 272.289,322.434 300.327,350.472 394.799,256 "/> <polygon style="fill:&lt;svg height=" 200px"="" width="200px" version="1.1" id="Layer_1" xmlns="http://www.w3.org/2000/svg" xmlns:xlink="http://www.w3.org/1999/xlink" viewBox="0 0 512 512" xml:space="preserve" fill="#000000">
<g id="SVGRepo_bgCarrier" stroke-width="0"/>
<g id="SVGRepo_iconCarrier"> <circle style="fill:F5CEB82D5D70;" cx="256" cy="256" r="256"/> <path style="fill:&lt;svg height=" 200px"="" width="200px" version="1.1" id="Layer_1" xmlns="http://www.w3.org/2000/svg" xmlns:xlink="http://www.w3.org/1999/xlink" viewBox="0 0 512 512" xml:space="preserve" fill="F5CEB8000000">
<g id="SVGRepo_bgCarrier" stroke-width="0"/>
<g id="SVGRepo_iconCarrier"> <circle style="fill:F5CEB82D5D70;" cx="256" cy="256" r="256"/> <path style="fill:F5CEB884DBFF;" d="M394.799,256l-98.573-1.724l-185.465,21.549l223.858,223.856 c71.623-23.092,129.455-76.869,158.008-145.854L394.799,256z"/> <polygon style="fill:&lt;svg height=" 200px"="" width="200px" version="1.1" id="Layer_1" xmlns="http://www.w3.org/2000/svg" xmlns:xlink="http://www.w3.org/1999/xlink" viewBox="0 0 512 512" xml:space="preserve" fill="F5CEB8000000">
<g id="SVGRepo_bgCarrier" stroke-width="0"/>
<g id="SVGRepo_iconCarrier"> <circle style="fill:F5CEB82D5D70;" cx="256" cy="256" r="256"/> <path style="fill:&lt;svg height=" 200px"="" width="200px" version="1.1" id="Layer_1" xmlns="http://www.w3.org/2000/svg" xmlns:xlink="http://www.w3.org/1999/xlink" viewBox="0 0 512 512" xml:space="preserve" fill="F5CEB8000000">
<g id="SVGRepo_bgCarrier" stroke-width="0"/>
<g id="SVGRepo_iconCarrier"> <circle style="fill:F5CEB82D5D70;" cx="256" cy="256" r="256"/> <path style="fill:F5CEB884DBFF;" d="M394.799,256l-98.573-1.724l-185.465,21.549l223.858,223.856 c71.623-23.092,129.455-76.869,158.008-145.854L394.799,256z"/> <polygon style="fill:&lt;svg height=" 200px"="" width="200px" version="1.1" id="Layer_1" xmlns="http://www.w3.org/2000/svg" xmlns:xlink="http://www.w3.org/1999/xlink" viewBox="0 0 512 512" xml:space="preserve" fill="F5CEB8000000">
<g id="SVGRepo_bgCarrier" stroke-width="0"/>
<g id="SVGRepo_iconCarrier"> <circle style="fill:F5CEB82D5D70;" cx="256" cy="256" r="256"/> <path style="fill:&lt;svg height=" 200px"="" width="200px" version="1.1" id="Layer_1" xmlns="http://www.w3.org/2000/svg" xmlns:xlink="http://www.w3.org/1999/xlink" viewBox="0 0 512 512" xml:space="preserve" fill="F5CEB8000000">
<g id="SVGRepo_bgCarrier" stroke-width="0"/>
<g id="SVGRepo_iconCarrier"> <circle style="fill:F5CEB82D5D70;" cx="256" cy="256" r="256"/> <path style="fill:F5CEB884DBFF;" d="M394.799,256l-98.573-1.724l-185.465,21.549l223.858,223.856 c71.623-23.092,129.455-76.869,158.008-145.854L394.799,256z"/> <polygon style="fill:&lt;svg height=" 200px"="" width="200px" version="1.1" id="Layer_1" xmlns="http://www.w3.org/2000/svg" xmlns:xlink="http://www.w3.org/1999/xlink" viewBox="0 0 512 512" xml:space="preserve" fill="F5CEB8000000">
<g id="SVGRepo_bgCarrier" stroke-width="0"/>
<g id="SVGRepo_iconCarrier"> <circle style="fill:F5CEB82D5D70;" cx="256" cy="256" r="256"/> <path style="fill:&lt;svg height=" 200px"="" width="200px" version="1.1" id="Layer_1" xmlns="http://www.w3.org/2000/svg" xmlns:xlink="http://www.w3.org/1999/xlink" viewBox="0 0 512 512" xml:space="preserve" fill="F5CEB8000000">
<g id="SVGRepo_bgCarrier" stroke-width="0"/>
<g id="SVGRepo_iconCarrier"> <circle style="fill:F5CEB82D5D70;" cx="256" cy="256" r="256"/> <path style="fill:F5CEB884DBFF;" d="M394.799,256l-98.573-1.724l-185.465,21.549l223.858,223.856 c71.623-23.092,129.455-76.869,158.008-145.854L394.799,256z"/> <polygon style="fill:F5CEB8;" points="300.327,161.528 272.289,189.566 318.898,236.175 110.761,236.175 110.761,275.825 318.898,275.825 272.289,322.434 300.327,350.472 394.799,256 "/> <polygon style="fill:F5CEB8F5CEB8;" points="110.761,275.825 318.898,275.825 272.289,322.434 300.327,350.472 394.799,256 110.761,256 "/> </g>;" d="M394.799,256l-98.573-1.724l-185.465,21.549l223.858,223.856 c71.623-23.092,129.455-76.869,158.008-145.854L394.799,256z"&gt;</path> <polygon style="fill:F5CEB8;" points="300.327,161.528 272.289,189.566 318.898,236.175 110.761,236.175 110.761,275.825 318.898,275.825 272.289,322.434 300.327,350.472 394.799,256 "/> <polygon style="fill:F5CEB8F5CEB8;" points="110.761,275.825 318.898,275.825 272.289,322.434 300.327,350.472 394.799,256 110.761,256 "/> </g>;" points="300.327,161.528 272.289,189.566 318.898,236.175 110.761,236.175 110.761,275.825 318.898,275.825 272.289,322.434 300.327,350.472 394.799,256 "&gt;</polygon> <polygon style="fill:F5CEB8F5CEB8;" points="110.761,275.825 318.898,275.825 272.289,322.434 300.327,350.472 394.799,256 110.761,256 "/> </g>;" d="M394.799,256l-98.573-1.724l-185.465,21.549l223.858,223.856 c71.623-23.092,129.455-76.869,158.008-145.854L394.799,256z"&gt;</path> <polygon style="fill:&lt;svg height=" 200px"="" width="200px" version="1.1" id="Layer_1" xmlns="http://www.w3.org/2000/svg" xmlns:xlink="http://www.w3.org/1999/xlink" viewBox="0 0 512 512" xml:space="preserve" fill="F5CEB8000000">
<g id="SVGRepo_bgCarrier" stroke-width="0"/>
<g id="SVGRepo_iconCarrier"> <circle style="fill:F5CEB82D5D70;" cx="256" cy="256" r="256"/> <path style="fill:&lt;svg height=" 200px"="" width="200px" version="1.1" id="Layer_1" xmlns="http://www.w3.org/2000/svg" xmlns:xlink="http://www.w3.org/1999/xlink" viewBox="0 0 512 512" xml:space="preserve" fill="F5CEB8000000">
<g id="SVGRepo_bgCarrier" stroke-width="0"/>
<g id="SVGRepo_iconCarrier"> <circle style="fill:F5CEB82D5D70;" cx="256" cy="256" r="256"/> <path style="fill:F5CEB884DBFF;" d="M394.799,256l-98.573-1.724l-185.465,21.549l223.858,223.856 c71.623-23.092,129.455-76.869,158.008-145.854L394.799,256z"/> <polygon style="fill:F5CEB8;" points="300.327,161.528 272.289,189.566 318.898,236.175 110.761,236.175 110.761,275.825 318.898,275.825 272.289,322.434 300.327,350.472 394.799,256 "/> <polygon style="fill:F5CEB8F5CEB8;" points="110.761,275.825 318.898,275.825 272.289,322.434 300.327,350.472 394.799,256 110.761,256 "/> </g>;" d="M394.799,256l-98.573-1.724l-185.465,21.549l223.858,223.856 c71.623-23.092,129.455-76.869,158.008-145.854L394.799,256z"&gt;</path> <polygon style="fill:F5CEB8;" points="300.327,161.528 272.289,189.566 318.898,236.175 110.761,236.175 110.761,275.825 318.898,275.825 272.289,322.434 300.327,350.472 394.799,256 "/> <polygon style="fill:F5CEB8F5CEB8;" points="110.761,275.825 318.898,275.825 272.289,322.434 300.327,350.472 394.799,256 110.761,256 "/> </g>;" points="300.327,161.528 272.289,189.566 318.898,236.175 110.761,236.175 110.761,275.825 318.898,275.825 272.289,322.434 300.327,350.472 394.799,256 "&gt;</polygon> <polygon style="fill:F5CEB8F5CEB8;" points="110.761,275.825 318.898,275.825 272.289,322.434 300.327,350.472 394.799,256 110.761,256 "/> </g>;" points="300.327,161.528 272.289,189.566 318.898,236.175 110.761,236.175 110.761,275.825 318.898,275.825 272.289,322.434 300.327,350.472 394.799,256 "&gt;</polygon> <polygon style="fill:F5CEB8F5CEB8;" points="110.761,275.825 318.898,275.825 272.289,322.434 300.327,350.472 394.799,256 110.761,256 "/> </g>;" d="M394.799,256l-98.573-1.724l-185.465,21.549l223.858,223.856 c71.623-23.092,129.455-76.869,158.008-145.854L394.799,256z"&gt;</path> <polygon style="fill:&lt;svg height=" 200px"="" width="200px" version="1.1" id="Layer_1" xmlns="http://www.w3.org/2000/svg" xmlns:xlink="http://www.w3.org/1999/xlink" viewBox="0 0 512 512" xml:space="preserve" fill="F5CEB8000000">
<g id="SVGRepo_bgCarrier" stroke-width="0"/>
<g id="SVGRepo_iconCarrier"> <circle style="fill:F5CEB82D5D70;" cx="256" cy="256" r="256"/> <path style="fill:&lt;svg height=" 200px"="" width="200px" version="1.1" id="Layer_1" xmlns="http://www.w3.org/2000/svg" xmlns:xlink="http://www.w3.org/1999/xlink" viewBox="0 0 512 512" xml:space="preserve" fill="F5CEB8000000">
<g id="SVGRepo_bgCarrier" stroke-width="0"/>
<g id="SVGRepo_iconCarrier"> <circle style="fill:F5CEB82D5D70;" cx="256" cy="256" r="256"/> <path style="fill:F5CEB884DBFF;" d="M394.799,256l-98.573-1.724l-185.465,21.549l223.858,223.856 c71.623-23.092,129.455-76.869,158.008-145.854L394.799,256z"/> <polygon style="fill:&lt;svg height=" 200px"="" width="200px" version="1.1" id="Layer_1" xmlns="http://www.w3.org/2000/svg" xmlns:xlink="http://www.w3.org/1999/xlink" viewBox="0 0 512 512" xml:space="preserve" fill="F5CEB8000000">
<g id="SVGRepo_bgCarrier" stroke-width="0"/>
<g id="SVGRepo_iconCarrier"> <circle style="fill:F5CEB82D5D70;" cx="256" cy="256" r="256"/> <path style="fill:&lt;svg height=" 200px"="" width="200px" version="1.1" id="Layer_1" xmlns="http://www.w3.org/2000/svg" xmlns:xlink="http://www.w3.org/1999/xlink" viewBox="0 0 512 512" xml:space="preserve" fill="F5CEB8000000">
<g id="SVGRepo_bgCarrier" stroke-width="0"/>
<g id="SVGRepo_iconCarrier"> <circle style="fill:F5CEB82D5D70;" cx="256" cy="256" r="256"/> <path style="fill:F5CEB884DBFF;" d="M394.799,256l-98.573-1.724l-185.465,21.549l223.858,223.856 c71.623-23.092,129.455-76.869,158.008-145.854L394.799,256z"/> <polygon style="fill:F5CEB8;" points="300.327,161.528 272.289,189.566 318.898,236.175 110.761,236.175 110.761,275.825 318.898,275.825 272.289,322.434 300.327,350.472 394.799,256 "/> <polygon style="fill:F5CEB8F5CEB8;" points="110.761,275.825 318.898,275.825 272.289,322.434 300.327,350.472 394.799,256 110.761,256 "/> </g>;" d="M394.799,256l-98.573-1.724l-185.465,21.549l223.858,223.856 c71.623-23.092,129.455-76.869,158.008-145.854L394.799,256z"&gt;</path> <polygon style="fill:F5CEB8;" points="300.327,161.528 272.289,189.566 318.898,236.175 110.761,236.175 110.761,275.825 318.898,275.825 272.289,322.434 300.327,350.472 394.799,256 "/> <polygon style="fill:F5CEB8F5CEB8;" points="110.761,275.825 318.898,275.825 272.289,322.434 300.327,350.472 394.799,256 110.761,256 "/> </g>;" points="300.327,161.528 272.289,189.566 318.898,236.175 110.761,236.175 110.761,275.825 318.898,275.825 272.289,322.434 300.327,350.472 394.799,256 "&gt;</polygon> <polygon style="fill:F5CEB8F5CEB8;" points="110.761,275.825 318.898,275.825 272.289,322.434 300.327,350.472 394.799,256 110.761,256 "/> </g>;" d="M394.799,256l-98.573-1.724l-185.465,21.549l223.858,223.856 c71.623-23.092,129.455-76.869,158.008-145.854L394.799,256z"&gt;</path> <polygon style="fill:&lt;svg height=" 200px"="" width="200px" version="1.1" id="Layer_1" xmlns="http://www.w3.org/2000/svg" xmlns:xlink="http://www.w3.org/1999/xlink" viewBox="0 0 512 512" xml:space="preserve" fill="F5CEB8000000">
<g id="SVGRepo_bgCarrier" stroke-width="0"/>
<g id="SVGRepo_iconCarrier"> <circle style="fill:F5CEB82D5D70;" cx="256" cy="256" r="256"/> <path style="fill:&lt;svg height=" 200px"="" width="200px" version="1.1" id="Layer_1" xmlns="http://www.w3.org/2000/svg" xmlns:xlink="http://www.w3.org/1999/xlink" viewBox="0 0 512 512" xml:space="preserve" fill="F5CEB8000000">
<g id="SVGRepo_bgCarrier" stroke-width="0"/>
<g id="SVGRepo_iconCarrier"> <circle style="fill:F5CEB82D5D70;" cx="256" cy="256" r="256"/> <path style="fill:F5CEB884DBFF;" d="M394.799,256l-98.573-1.724l-185.465,21.549l223.858,223.856 c71.623-23.092,129.455-76.869,158.008-145.854L394.799,256z"/> <polygon style="fill:F5CEB8;" points="300.327,161.528 272.289,189.566 318.898,236.175 110.761,236.175 110.761,275.825 318.898,275.825 272.289,322.434 300.327,350.472 394.799,256 "/> <polygon style="fill:F5CEB8F5CEB8;" points="110.761,275.825 318.898,275.825 272.289,322.434 300.327,350.472 394.799,256 110.761,256 "/> </g>;" d="M394.799,256l-98.573-1.724l-185.465,21.549l223.858,223.856 c71.623-23.092,129.455-76.869,158.008-145.854L394.799,256z"&gt;</path> <polygon style="fill:F5CEB8;" points="300.327,161.528 272.289,189.566 318.898,236.175 110.761,236.175 110.761,275.825 318.898,275.825 272.289,322.434 300.327,350.472 394.799,256 "/> <polygon style="fill:F5CEB8F5CEB8;" points="110.761,275.825 318.898,275.825 272.289,322.434 300.327,350.472 394.799,256 110.761,256 "/> </g>;" points="300.327,161.528 272.289,189.566 318.898,236.175 110.761,236.175 110.761,275.825 318.898,275.825 272.289,322.434 300.327,350.472 394.799,256 "&gt;</polygon> <polygon style="fill:F5CEB8F5CEB8;" points="110.761,275.825 318.898,275.825 272.289,322.434 300.327,350.472 394.799,256 110.761,256 "/> </g>;" points="300.327,161.528 272.289,189.566 318.898,236.175 110.761,236.175 110.761,275.825 318.898,275.825 272.289,322.434 300.327,350.472 394.799,256 "&gt;</polygon> <polygon style="fill:F5CEB8F5CEB8;" points="110.761,275.825 318.898,275.825 272.289,322.434 300.327,350.472 394.799,256 110.761,256 "/> </g>;" points="300.327,161.528 272.289,189.566 318.898,236.175 110.761,236.175 110.761,275.825 318.898,275.825 272.289,322.434 300.327,350.472 394.799,256 "&gt;</polygon> <polygon style="fill:F5CEB8F5CEB8;" points="110.761,275.825 318.898,275.825 272.289,322.434 300.327,350.472 394.799,256 110.761,256 "/> </g>;" d="M394.799,256l-98.573-1.724l-185.465,21.549l223.858,223.856 c71.623-23.092,129.455-76.869,158.008-145.854L394.799,256z"&gt;</path> <polygon style="fill:&lt;svg height=" 200px"="" width="200px" version="1.1" id="Layer_1" xmlns="http://www.w3.org/2000/svg" xmlns:xlink="http://www.w3.org/1999/xlink" viewBox="0 0 512 512" xml:space="preserve" fill="F5CEB8000000">
<g id="SVGRepo_bgCarrier" stroke-width="0"/>
<g id="SVGRepo_iconCarrier"> <circle style="fill:F5CEB82D5D70;" cx="256" cy="256" r="256"/> <path style="fill:&lt;svg height=" 200px"="" width="200px" version="1.1" id="Layer_1" xmlns="http://www.w3.org/2000/svg" xmlns:xlink="http://www.w3.org/1999/xlink" viewBox="0 0 512 512" xml:space="preserve" fill="F5CEB8000000">
<g id="SVGRepo_bgCarrier" stroke-width="0"/>
<g id="SVGRepo_iconCarrier"> <circle style="fill:F5CEB82D5D70;" cx="256" cy="256" r="256"/> <path style="fill:F5CEB884DBFF;" d="M394.799,256l-98.573-1.724l-185.465,21.549l223.858,223.856 c71.623-23.092,129.455-76.869,158.008-145.854L394.799,256z"/> <polygon style="fill:&lt;svg height=" 200px"="" width="200px" version="1.1" id="Layer_1" xmlns="http://www.w3.org/2000/svg" xmlns:xlink="http://www.w3.org/1999/xlink" viewBox="0 0 512 512" xml:space="preserve" fill="F5CEB8000000">
<g id="SVGRepo_bgCarrier" stroke-width="0"/>
<g id="SVGRepo_iconCarrier"> <circle style="fill:F5CEB82D5D70;" cx="256" cy="256" r="256"/> <path style="fill:&lt;svg height=" 200px"="" width="200px" version="1.1" id="Layer_1" xmlns="http://www.w3.org/2000/svg" xmlns:xlink="http://www.w3.org/1999/xlink" viewBox="0 0 512 512" xml:space="preserve" fill="F5CEB8000000">
<g id="SVGRepo_bgCarrier" stroke-width="0"/>
<g id="SVGRepo_iconCarrier"> <circle style="fill:F5CEB82D5D70;" cx="256" cy="256" r="256"/> <path style="fill:F5CEB884DBFF;" d="M394.799,256l-98.573-1.724l-185.465,21.549l223.858,223.856 c71.623-23.092,129.455-76.869,158.008-145.854L394.799,256z"/> <polygon style="fill:&lt;svg height=" 200px"="" width="200px" version="1.1" id="Layer_1" xmlns="http://www.w3.org/2000/svg" xmlns:xlink="http://www.w3.org/1999/xlink" viewBox="0 0 512 512" xml:space="preserve" fill="F5CEB8000000">
<g id="SVGRepo_bgCarrier" stroke-width="0"/>
<g id="SVGRepo_iconCarrier"> <circle style="fill:F5CEB82D5D70;" cx="256" cy="256" r="256"/> <path style="fill:&lt;svg height=" 200px"="" width="200px" version="1.1" id="Layer_1" xmlns="http://www.w3.org/2000/svg" xmlns:xlink="http://www.w3.org/1999/xlink" viewBox="0 0 512 512" xml:space="preserve" fill="F5CEB8000000">
<g id="SVGRepo_bgCarrier" stroke-width="0"/>
<g id="SVGRepo_iconCarrier"> <circle style="fill:F5CEB82D5D70;" cx="256" cy="256" r="256"/> <path style="fill:F5CEB884DBFF;" d="M394.799,256l-98.573-1.724l-185.465,21.549l223.858,223.856 c71.623-23.092,129.455-76.869,158.008-145.854L394.799,256z"/> <polygon style="fill:F5CEB8;" points="300.327,161.528 272.289,189.566 318.898,236.175 110.761,236.175 110.761,275.825 318.898,275.825 272.289,322.434 300.327,350.472 394.799,256 "/> <polygon style="fill:F5CEB8F5CEB8;" points="110.761,275.825 318.898,275.825 272.289,322.434 300.327,350.472 394.799,256 110.761,256 "/> </g>;" d="M394.799,256l-98.573-1.724l-185.465,21.549l223.858,223.856 c71.623-23.092,129.455-76.869,158.008-145.854L394.799,256z"&gt;</path> <polygon style="fill:F5CEB8;" points="300.327,161.528 272.289,189.566 318.898,236.175 110.761,236.175 110.761,275.825 318.898,275.825 272.289,322.434 300.327,350.472 394.799,256 "/> <polygon style="fill:F5CEB8F5CEB8;" points="110.761,275.825 318.898,275.825 272.289,322.434 300.327,350.472 394.799,256 110.761,256 "/> </g>;" points="300.327,161.528 272.289,189.566 318.898,236.175 110.761,236.175 110.761,275.825 318.898,275.825 272.289,322.434 300.327,350.472 394.799,256 "&gt;</polygon> <polygon style="fill:F5CEB8F5CEB8;" points="110.761,275.825 318.898,275.825 272.289,322.434 300.327,350.472 394.799,256 110.761,256 "/> </g>;" d="M394.799,256l-98.573-1.724l-185.465,21.549l223.858,223.856 c71.623-23.092,129.455-76.869,158.008-145.854L394.799,256z"&gt;</path> <polygon style="fill:&lt;svg height=" 200px"="" width="200px" version="1.1" id="Layer_1" xmlns="http://www.w3.org/2000/svg" xmlns:xlink="http://www.w3.org/1999/xlink" viewBox="0 0 512 512" xml:space="preserve" fill="F5CEB8000000">
<g id="SVGRepo_bgCarrier" stroke-width="0"/>
<g id="SVGRepo_iconCarrier"> <circle style="fill:F5CEB82D5D70;" cx="256" cy="256" r="256"/> <path style="fill:&lt;svg height=" 200px"="" width="200px" version="1.1" id="Layer_1" xmlns="http://www.w3.org/2000/svg" xmlns:xlink="http://www.w3.org/1999/xlink" viewBox="0 0 512 512" xml:space="preserve" fill="F5CEB8000000">
<g id="SVGRepo_bgCarrier" stroke-width="0"/>
<g id="SVGRepo_iconCarrier"> <circle style="fill:F5CEB82D5D70;" cx="256" cy="256" r="256"/> <path style="fill:F5CEB884DBFF;" d="M394.799,256l-98.573-1.724l-185.465,21.549l223.858,223.856 c71.623-23.092,129.455-76.869,158.008-145.854L394.799,256z"/> <polygon style="fill:F5CEB8;" points="300.327,161.528 272.289,189.566 318.898,236.175 110.761,236.175 110.761,275.825 318.898,275.825 272.289,322.434 300.327,350.472 394.799,256 "/> <polygon style="fill:F5CEB8F5CEB8;" points="110.761,275.825 318.898,275.825 272.289,322.434 300.327,350.472 394.799,256 110.761,256 "/> </g>;" d="M394.799,256l-98.573-1.724l-185.465,21.549l223.858,223.856 c71.623-23.092,129.455-76.869,158.008-145.854L394.799,256z"&gt;</path> <polygon style="fill:F5CEB8;" points="300.327,161.528 272.289,189.566 318.898,236.175 110.761,236.175 110.761,275.825 318.898,275.825 272.289,322.434 300.327,350.472 394.799,256 "/> <polygon style="fill:F5CEB8F5CEB8;" points="110.761,275.825 318.898,275.825 272.289,322.434 300.327,350.472 394.799,256 110.761,256 "/> </g>;" points="300.327,161.528 272.289,189.566 318.898,236.175 110.761,236.175 110.761,275.825 318.898,275.825 272.289,322.434 300.327,350.472 394.799,256 "&gt;</polygon> <polygon style="fill:F5CEB8F5CEB8;" points="110.761,275.825 318.898,275.825 272.289,322.434 300.327,350.472 394.799,256 110.761,256 "/> </g>;" points="300.327,161.528 272.289,189.566 318.898,236.175 110.761,236.175 110.761,275.825 318.898,275.825 272.289,322.434 300.327,350.472 394.799,256 "&gt;</polygon> <polygon style="fill:F5CEB8F5CEB8;" points="110.761,275.825 318.898,275.825 272.289,322.434 300.327,350.472 394.799,256 110.761,256 "/> </g>;" d="M394.799,256l-98.573-1.724l-185.465,21.549l223.858,223.856 c71.623-23.092,129.455-76.869,158.008-145.854L394.799,256z"&gt;</path> <polygon style="fill:&lt;svg height=" 200px"="" width="200px" version="1.1" id="Layer_1" xmlns="http://www.w3.org/2000/svg" xmlns:xlink="http://www.w3.org/1999/xlink" viewBox="0 0 512 512" xml:space="preserve" fill="F5CEB8000000">
<g id="SVGRepo_bgCarrier" stroke-width="0"/>
<g id="SVGRepo_iconCarrier"> <circle style="fill:F5CEB82D5D70;" cx="256" cy="256" r="256"/> <path style="fill:&lt;svg height=" 200px"="" width="200px" version="1.1" id="Layer_1" xmlns="http://www.w3.org/2000/svg" xmlns:xlink="http://www.w3.org/1999/xlink" viewBox="0 0 512 512" xml:space="preserve" fill="F5CEB8000000">
<g id="SVGRepo_bgCarrier" stroke-width="0"/>
<g id="SVGRepo_iconCarrier"> <circle style="fill:F5CEB82D5D70;" cx="256" cy="256" r="256"/> <path style="fill:F5CEB884DBFF;" d="M394.799,256l-98.573-1.724l-185.465,21.549l223.858,223.856 c71.623-23.092,129.455-76.869,158.008-145.854L394.799,256z"/> <polygon style="fill:&lt;svg height=" 200px"="" width="200px" version="1.1" id="Layer_1" xmlns="http://www.w3.org/2000/svg" xmlns:xlink="http://www.w3.org/1999/xlink" viewBox="0 0 512 512" xml:space="preserve" fill="F5CEB8000000">
<g id="SVGRepo_bgCarrier" stroke-width="0"/>
<g id="SVGRepo_iconCarrier"> <circle style="fill:F5CEB82D5D70;" cx="256" cy="256" r="256"/> <path style="fill:&lt;svg height=" 200px"="" width="200px" version="1.1" id="Layer_1" xmlns="http://www.w3.org/2000/svg" xmlns:xlink="http://www.w3.org/1999/xlink" viewBox="0 0 512 512" xml:space="preserve" fill="F5CEB8000000">
<g id="SVGRepo_bgCarrier" stroke-width="0"/>
<g id="SVGRepo_iconCarrier"> <circle style="fill:F5CEB82D5D70;" cx="256" cy="256" r="256"/> <path style="fill:F5CEB884DBFF;" d="M394.799,256l-98.573-1.724l-185.465,21.549l223.858,223.856 c71.623-23.092,129.455-76.869,158.008-145.854L394.799,256z"/> <polygon style="fill:F5CEB8;" points="300.327,161.528 272.289,189.566 318.898,236.175 110.761,236.175 110.761,275.825 318.898,275.825 272.289,322.434 300.327,350.472 394.799,256 "/> <polygon style="fill:F5CEB8F5CEB8;" points="110.761,275.825 318.898,275.825 272.289,322.434 300.327,350.472 394.799,256 110.761,256 "/> </g>;" d="M394.799,256l-98.573-1.724l-185.465,21.549l223.858,223.856 c71.623-23.092,129.455-76.869,158.008-145.854L394.799,256z"&gt;</path> <polygon style="fill:F5CEB8;" points="300.327,161.528 272.289,189.566 318.898,236.175 110.761,236.175 110.761,275.825 318.898,275.825 272.289,322.434 300.327,350.472 394.799,256 "/> <polygon style="fill:F5CEB8F5CEB8;" points="110.761,275.825 318.898,275.825 272.289,322.434 300.327,350.472 394.799,256 110.761,256 "/> </g>;" points="300.327,161.528 272.289,189.566 318.898,236.175 110.761,236.175 110.761,275.825 318.898,275.825 272.289,322.434 300.327,350.472 394.799,256 "&gt;</polygon> <polygon style="fill:F5CEB8F5CEB8;" points="110.761,275.825 318.898,275.825 272.289,322.434 300.327,350.472 394.799,256 110.761,256 "/> </g>;" d="M394.799,256l-98.573-1.724l-185.465,21.549l223.858,223.856 c71.623-23.092,129.455-76.869,158.008-145.854L394.799,256z"&gt;</path> <polygon style="fill:&lt;svg height=" 200px"="" width="200px" version="1.1" id="Layer_1" xmlns="http://www.w3.org/2000/svg" xmlns:xlink="http://www.w3.org/1999/xlink" viewBox="0 0 512 512" xml:space="preserve" fill="F5CEB8000000">
<g id="SVGRepo_bgCarrier" stroke-width="0"/>
<g id="SVGRepo_iconCarrier"> <circle style="fill:F5CEB82D5D70;" cx="256" cy="256" r="256"/> <path style="fill:&lt;svg height=" 200px"="" width="200px" version="1.1" id="Layer_1" xmlns="http://www.w3.org/2000/svg" xmlns:xlink="http://www.w3.org/1999/xlink" viewBox="0 0 512 512" xml:space="preserve" fill="F5CEB8000000">
<g id="SVGRepo_bgCarrier" stroke-width="0"/>
<g id="SVGRepo_iconCarrier"> <circle style="fill:F5CEB82D5D70;" cx="256" cy="256" r="256"/> <path style="fill:F5CEB884DBFF;" d="M394.799,256l-98.573-1.724l-185.465,21.549l223.858,223.856 c71.623-23.092,129.455-76.869,158.008-145.854L394.799,256z"/> <polygon style="fill:F5CEB8;" points="300.327,161.528 272.289,189.566 318.898,236.175 110.761,236.175 110.761,275.825 318.898,275.825 272.289,322.434 300.327,350.472 394.799,256 "/> <polygon style="fill:F5CEB8F5CEB8;" points="110.761,275.825 318.898,275.825 272.289,322.434 300.327,350.472 394.799,256 110.761,256 "/> </g>;" d="M394.799,256l-98.573-1.724l-185.465,21.549l223.858,223.856 c71.623-23.092,129.455-76.869,158.008-145.854L394.799,256z"&gt;</path> <polygon style="fill:F5CEB8;" points="300.327,161.528 272.289,189.566 318.898,236.175 110.761,236.175 110.761,275.825 318.898,275.825 272.289,322.434 300.327,350.472 394.799,256 "/> <polygon style="fill:F5CEB8F5CEB8;" points="110.761,275.825 318.898,275.825 272.289,322.434 300.327,350.472 394.799,256 110.761,256 "/> </g>;" points="300.327,161.528 272.289,189.566 318.898,236.175 110.761,236.175 110.761,275.825 318.898,275.825 272.289,322.434 300.327,350.472 394.799,256 "&gt;</polygon> <polygon style="fill:F5CEB8F5CEB8;" points="110.761,275.825 318.898,275.825 272.289,322.434 300.327,350.472 394.799,256 110.761,256 "/> </g>;" points="300.327,161.528 272.289,189.566 318.898,236.175 110.761,236.175 110.761,275.825 318.898,275.825 272.289,322.434 300.327,350.472 394.799,256 "&gt;</polygon> <polygon style="fill:F5CEB8F5CEB8;" points="110.761,275.825 318.898,275.825 272.289,322.434 300.327,350.472 394.799,256 110.761,256 "/> </g>;" points="300.327,161.528 272.289,189.566 318.898,236.175 110.761,236.175 110.761,275.825 318.898,275.825 272.289,322.434 300.327,350.472 394.799,256 "&gt;</polygon> <polygon style="fill:F5CEB8F5CEB8;" points="110.761,275.825 318.898,275.825 272.289,322.434 300.327,350.472 394.799,256 110.761,256 "/> </g>;" points="110.761,275.825 318.898,275.825 272.289,322.434 300.327,350.472 394.799,256 110.761,256 "&gt;</polygon> </g>
</svg>